<svg xmlns="http://www.w3.org/2000/svg" viewBox="0 0 100 200" fill="currentColor">
  <!-- Simple abstract statuette silhouette -->
  <!-- Base -->
  <path d="M 30 180 L 70 180 L 75 190 L 25 190 Z" />
  <path d="M 20 190 L 80 190 L 80 200 L 20 200 Z" />
  <!-- Body/Legs -->
  <path d="M 40 100 L 60 100 L 65 180 L 35 180 Z" />
  <!-- Arms/Chest holding sword -->
  <path d="M 30 70 C 30 70, 70 70, 70 70 C 70 70, 80 100, 60 100 C 60 100, 40 100, 40 100 C 40 100, 20 100, 30 70 Z" />
  <path d="M 45 60 L 55 60 L 52 170 L 48 170 Z" /> <!-- Sword -->
  <!-- Head -->
  <circle cx="50" cy="40" r="15" />
</svg>
